2.8Hzlow3min_grf.mot
version=1
nRows=22
nColumns 19
inDegrees=yes
endheader
time	1_ground_force_vx	1_ground_force_vy	1_ground_force_vz	1_ground_force_px	1_ground_force_py	1_ground_force_pz	1_ground_torque_x	1_ground_torque_y	1_ground_torque_z	2_ground_force_vx	2_ground_force_vy	2_ground_force_vz	2_ground_force_px	2_ground_force_py	2_ground_force_pz	2_ground_torque_x	2_ground_torque_y	2_ground_torque_z
            2.502500	           12.119113	          458.020903	          -31.587843	           -0.262369	            0.005934	           -0.339180	            0.006726	            0.254212	           -0.017532	            3.025966	          541.837354	           38.113180	           -0.259248	            0.005574	           -0.705116	           -0.007751	           -1.387856	           -0.097623
            2.503000	           11.662192	          452.251527	          -31.428017	           -0.262747	            0.005934	           -0.339117	            0.005728	            0.222134	           -0.015437	            2.761380	          537.233475	           37.862233	           -0.259176	            0.005575	           -0.705306	           -0.006606	           -1.285216	           -0.090577
            2.503500	           11.481090	          447.922559	          -30.849982	           -0.262384	            0.005933	           -0.338828	            0.004694	            0.183112	           -0.012612	            2.872901	          532.262836	           37.562884	           -0.259037	            0.005576	           -0.705273	           -0.006986	           -1.294301	           -0.091341
            2.504000	           11.665904	          442.513838	          -30.690202	           -0.262425	            0.005932	           -0.338817	            0.004637	            0.175893	           -0.012199	            3.173671	          526.741561	           36.932987	           -0.259107	            0.005575	           -0.705175	           -0.007650	           -1.269756	           -0.089030
            2.504500	           11.255003	          437.645239	          -30.389061	           -0.262408	            0.005933	           -0.338863	            0.003867	            0.150362	           -0.010441	            3.570238	          520.667428	           36.535720	           -0.258800	            0.005575	           -0.704797	           -0.008974	           -1.308682	           -0.091831
            2.505000	           10.935497	          431.876086	          -30.275427	           -0.262519	            0.005933	           -0.339011	            0.004561	            0.180122	           -0.012627	            3.818383	          516.801638	           36.381038	           -0.258765	            0.005575	           -0.704709	           -0.010488	           -1.419470	           -0.099926
            2.505500	           10.754478	          426.465721	          -29.747890	           -0.262558	            0.005933	           -0.339010	            0.004244	            0.168312	           -0.011740	            3.322247	          511.459955	           36.221418	           -0.258790	            0.005574	           -0.704608	           -0.008835	           -1.360141	           -0.096325
            2.506000	           10.526655	          421.958022	          -29.537366	           -0.262508	            0.005933	           -0.338911	            0.002101	            0.084214	           -0.005895	            3.668826	          506.304849	           36.249809	           -0.258650	            0.005575	           -0.704631	           -0.009793	           -1.351488	           -0.096762
            2.506500	           10.573599	          416.549864	          -29.514813	           -0.262520	            0.005932	           -0.338778	            0.002409	            0.094920	           -0.006726	            3.165214	          502.990175	           35.721992	           -0.258392	            0.005576	           -0.704859	           -0.007760	           -1.233139	           -0.087577
            2.507000	           10.300847	          410.779146	          -29.034450	           -0.262596	            0.005934	           -0.339127	            0.002045	            0.081570	           -0.005765	            3.325599	          497.467054	           35.467580	           -0.258272	            0.005576	           -0.704750	           -0.007858	           -1.175486	           -0.083808
            2.507500	            9.797723	          405.731217	          -28.963129	           -0.262645	            0.005933	           -0.339008	            0.001780	            0.073728	           -0.005263	            3.534808	          491.391848	           35.164249	           -0.258673	            0.005574	           -0.704457	           -0.008277	           -1.150567	           -0.082335
            2.508000	            9.891532	          401.582795	          -28.430864	           -0.262287	            0.005933	           -0.338837	            0.001299	            0.052756	           -0.003735	            3.690500	          487.158108	           34.820580	           -0.258125	            0.005576	           -0.704492	           -0.008936	           -1.179536	           -0.084310
            2.508500	            9.572074	          396.173977	          -28.269833	           -0.262297	            0.005933	           -0.338874	            0.000511	            0.021164	           -0.001510	            4.178047	          481.821316	           34.285117	           -0.258468	            0.005573	           -0.704120	           -0.011654	           -1.344002	           -0.095636
            2.509000	            9.436476	          390.584111	          -27.926606	           -0.262577	            0.005934	           -0.339071	            0.001337	            0.055357	           -0.003958	            4.052139	          477.769363	           34.317649	           -0.258228	            0.005576	           -0.704473	           -0.010610	           -1.251017	           -0.089859
            2.509500	            8.979896	          384.814144	          -27.629212	           -0.262394	            0.005934	           -0.339129	            0.000059	            0.002543	           -0.000183	            4.069961	          472.798385	           34.018340	           -0.258273	            0.005575	           -0.704226	           -0.010080	           -1.170985	           -0.084254
            2.510000	            9.256082	          381.748729	          -27.413755	           -0.262543	            0.005932	           -0.338695	            0.000468	            0.019316	           -0.001387	            3.851600	          468.378482	           33.861886	           -0.258042	            0.005575	           -0.704125	           -0.009216	           -1.120682	           -0.081021
            2.510500	            9.211702	          374.357600	          -27.399477	           -0.262783	            0.005934	           -0.339141	           -0.000289	           -0.011765	            0.000861	            3.633884	          463.774605	           33.657847	           -0.258148	            0.005575	           -0.704132	           -0.008087	           -1.032148	           -0.074907
            2.511000	            8.983942	          370.750866	          -27.093376	           -0.262491	            0.005932	           -0.338608	           -0.000854	           -0.035238	            0.002575	            3.744843	          458.987270	           33.593795	           -0.257842	            0.005575	           -0.703928	           -0.008439	           -1.034373	           -0.075707
            2.511500	            8.756039	          366.063128	          -26.929481	           -0.262414	            0.005932	           -0.338781	            0.000987	            0.041265	           -0.003036	            4.182861	          454.387100	           33.014052	           -0.257714	            0.005576	           -0.704149	           -0.010453	           -1.135511	           -0.082502
            2.512000	            8.161732	          361.374729	          -26.627107	           -0.262403	            0.005932	           -0.338638	           -0.000024	           -0.001047	            0.000077	            4.477130	          450.706122	           32.719223	           -0.257702	            0.005576	           -0.704053	           -0.011948	           -1.202781	           -0.087316
            2.512500	            8.208889	          355.425608	          -26.561017	           -0.262630	            0.005932	           -0.338814	           -0.000884	           -0.038289	            0.002861	            4.402539	          445.366799	           32.324783	           -0.257762	            0.005576	           -0.704016	           -0.011322	           -1.145357	           -0.083130
            2.513000	            7.889886	          350.016003	          -26.216562	           -0.262554	            0.005932	           -0.338731	           -0.003026	           -0.134243	            0.010055	            4.558313	          441.132450	           32.168827	           -0.257671	            0.005575	           -0.703750	           -0.011388	           -1.102123	           -0.080370
